<svg width="143" height="44" viewBox="0 0 143 44" fill="none" xmlns="http://www.w3.org/2000/svg">
<rect width="45" height="44" fill="#EFF2F4"/>
<path d="M19.2124 9.36364V21H17.1044V11.4148H17.0362L14.3146 13.1534V11.2216L17.2067 9.36364H19.2124ZM26.343 21.1591C25.5249 21.1591 24.7976 21.0189 24.1612 20.7386C23.5286 20.4583 23.0286 20.0682 22.6612 19.5682C22.2938 19.0682 22.0987 18.4905 22.076 17.8352H24.2124C24.2313 18.1496 24.3355 18.4242 24.5249 18.6591C24.7143 18.8902 24.9661 19.0701 25.2805 19.1989C25.5949 19.3277 25.9472 19.392 26.3374 19.392C26.754 19.392 27.1233 19.3201 27.4453 19.1761C27.7673 19.0284 28.0192 18.8239 28.201 18.5625C28.3828 18.3011 28.4718 18 28.468 17.6591C28.4718 17.3068 28.3809 16.9962 28.1953 16.7273C28.0097 16.4583 27.7408 16.2481 27.3885 16.0966C27.04 15.9451 26.6196 15.8693 26.1271 15.8693H25.0987V14.2443H26.1271C26.5324 14.2443 26.8866 14.1742 27.1896 14.0341C27.4964 13.8939 27.737 13.697 27.9112 13.4432C28.0855 13.1856 28.1707 12.8883 28.1669 12.5511C28.1707 12.2216 28.0968 11.9356 27.9453 11.6932C27.7976 11.447 27.5874 11.2557 27.3146 11.1193C27.0457 10.983 26.7294 10.9148 26.3658 10.9148C26.0097 10.9148 25.6802 10.9792 25.3771 11.108C25.0741 11.2367 24.8298 11.4205 24.6442 11.6591C24.4586 11.8939 24.3601 12.1742 24.3487 12.5H22.3203C22.3355 11.8485 22.523 11.2765 22.8828 10.7841C23.2464 10.2879 23.7313 9.90151 24.3374 9.625C24.9434 9.3447 25.6233 9.20455 26.3771 9.20455C27.1536 9.20455 27.8279 9.35038 28.3999 9.64205C28.9756 9.92992 29.4207 10.3182 29.7351 10.8068C30.0495 11.2955 30.2067 11.8352 30.2067 12.4261C30.2105 13.0814 30.0173 13.6307 29.6271 14.0739C29.2408 14.517 28.7332 14.8068 28.1044 14.9432V15.0341C28.9226 15.1477 29.5495 15.4508 29.9851 15.9432C30.4245 16.4318 30.6423 17.0398 30.6385 17.767C30.6385 18.4186 30.4529 19.0019 30.0817 19.517C29.7143 20.0284 29.2067 20.4299 28.5589 20.7216C27.915 21.0133 27.1764 21.1591 26.343 21.1591Z" fill="#8B96A5"/>
<path d="M10.3735 36V28H11.3423V31.5625H15.6079V28H16.5767V36H15.6079V32.4219H11.3423V36H10.3735ZM20.8286 36.125C20.2869 36.125 19.8117 35.9961 19.4028 35.7383C18.9966 35.4805 18.6789 35.1198 18.4497 34.6562C18.2231 34.1927 18.1099 33.651 18.1099 33.0312C18.1099 32.4062 18.2231 31.8607 18.4497 31.3945C18.6789 30.9284 18.9966 30.5664 19.4028 30.3086C19.8117 30.0508 20.2869 29.9219 20.8286 29.9219C21.3703 29.9219 21.8442 30.0508 22.2505 30.3086C22.6593 30.5664 22.9771 30.9284 23.2036 31.3945C23.4328 31.8607 23.5474 32.4062 23.5474 33.0312C23.5474 33.651 23.4328 34.1927 23.2036 34.6562C22.9771 35.1198 22.6593 35.4805 22.2505 35.7383C21.8442 35.9961 21.3703 36.125 20.8286 36.125ZM20.8286 35.2969C21.2401 35.2969 21.5786 35.1914 21.8442 34.9805C22.1099 34.7695 22.3065 34.4922 22.4341 34.1484C22.5617 33.8047 22.6255 33.4323 22.6255 33.0312C22.6255 32.6302 22.5617 32.2565 22.4341 31.9102C22.3065 31.5638 22.1099 31.2839 21.8442 31.0703C21.5786 30.8568 21.2401 30.75 20.8286 30.75C20.4172 30.75 20.0786 30.8568 19.813 31.0703C19.5474 31.2839 19.3507 31.5638 19.2231 31.9102C19.0955 32.2565 19.0317 32.6302 19.0317 33.0312C19.0317 33.4323 19.0955 33.8047 19.2231 34.1484C19.3507 34.4922 19.5474 34.7695 19.813 34.9805C20.0786 35.1914 20.4172 35.2969 20.8286 35.2969ZM28.7358 33.5469V30H29.6577V36H28.7358V34.9844H28.6733C28.5327 35.2891 28.314 35.5482 28.0171 35.7617C27.7202 35.9727 27.3452 36.0781 26.8921 36.0781C26.5171 36.0781 26.1838 35.9961 25.8921 35.832C25.6004 35.6654 25.3713 35.4154 25.2046 35.082C25.0379 34.7461 24.9546 34.3229 24.9546 33.8125V30H25.8765V33.75C25.8765 34.1875 25.9989 34.5365 26.2437 34.7969C26.491 35.0573 26.8062 35.1875 27.189 35.1875C27.4181 35.1875 27.6512 35.1289 27.8882 35.0117C28.1278 34.8945 28.3283 34.7148 28.4897 34.4727C28.6538 34.2305 28.7358 33.9219 28.7358 33.5469ZM31.3462 36V30H32.2368V30.9062H32.2993C32.4087 30.6094 32.6066 30.3685 32.8931 30.1836C33.1795 29.9987 33.5024 29.9062 33.8618 29.9062C33.9295 29.9062 34.0142 29.9076 34.1157 29.9102C34.2173 29.9128 34.2941 29.9167 34.3462 29.9219V30.8594C34.3149 30.8516 34.2433 30.8398 34.1313 30.8242C34.022 30.806 33.9061 30.7969 33.7837 30.7969C33.492 30.7969 33.2316 30.8581 33.0024 30.9805C32.7759 31.1003 32.5962 31.2669 32.4634 31.4805C32.3332 31.6914 32.2681 31.9323 32.2681 32.2031V36H31.3462Z" fill="#8B96A5"/>
<rect x="49" width="45" height="44" fill="#EFF2F4"/>
<path d="M65.6712 21.1591C64.853 21.1591 64.1257 21.0189 63.4893 20.7386C62.8568 20.4583 62.3568 20.0682 61.9893 19.5682C61.6219 19.0682 61.4268 18.4905 61.4041 17.8352H63.5405C63.5594 18.1496 63.6636 18.4242 63.853 18.6591C64.0424 18.8902 64.2943 19.0701 64.6087 19.1989C64.9231 19.3277 65.2753 19.392 65.6655 19.392C66.0821 19.392 66.4515 19.3201 66.7734 19.1761C67.0954 19.0284 67.3473 18.8239 67.5291 18.5625C67.7109 18.3011 67.8 18 67.7962 17.6591C67.8 17.3068 67.709 16.9962 67.5234 16.7273C67.3378 16.4583 67.0689 16.2481 66.7166 16.0966C66.3681 15.9451 65.9477 15.8693 65.4553 15.8693H64.4268V14.2443H65.4553C65.8606 14.2443 66.2147 14.1742 66.5178 14.0341C66.8246 13.8939 67.0651 13.697 67.2393 13.4432C67.4136 13.1856 67.4988 12.8883 67.495 12.5511C67.4988 12.2216 67.425 11.9356 67.2734 11.6932C67.1257 11.447 66.9155 11.2557 66.6428 11.1193C66.3738 10.983 66.0575 10.9148 65.6939 10.9148C65.3378 10.9148 65.0083 10.9792 64.7053 11.108C64.4022 11.2367 64.1579 11.4205 63.9723 11.6591C63.7867 11.8939 63.6882 12.1742 63.6768 12.5H61.6484C61.6636 11.8485 61.8511 11.2765 62.2109 10.7841C62.5746 10.2879 63.0594 9.90151 63.6655 9.625C64.2715 9.3447 64.9515 9.20455 65.7053 9.20455C66.4818 9.20455 67.156 9.35038 67.728 9.64205C68.3037 9.92992 68.7488 10.3182 69.0632 10.8068C69.3776 11.2955 69.5348 11.8352 69.5348 12.4261C69.5386 13.0814 69.3454 13.6307 68.9553 14.0739C68.5689 14.517 68.0613 14.8068 67.4325 14.9432V15.0341C68.2507 15.1477 68.8776 15.4508 69.3132 15.9432C69.7526 16.4318 69.9704 17.0398 69.9666 17.767C69.9666 18.4186 69.781 19.0019 69.4098 19.517C69.0424 20.0284 68.5348 20.4299 67.8871 20.7216C67.2431 21.0133 66.5045 21.1591 65.6712 21.1591ZM71.7067 18.8409V17.1648L76.6442 9.36364H78.0419V11.75H77.1896L73.8658 17.017V17.108H80.7578V18.8409H71.7067ZM77.2578 21V18.3295L77.2805 17.5795V9.36364H79.2692V21H77.2578Z" fill="#8B96A5"/>
<path d="M63.0532 28H64.2095L66.9282 34.6406H67.022L69.7407 28H70.897V36H69.9907V29.9219H69.9126L67.4126 36H66.5376L64.0376 29.9219H63.9595V36H63.0532V28ZM72.7144 36V30H73.6362V36H72.7144ZM73.1831 29C73.0034 29 72.8485 28.9388 72.7183 28.8164C72.5907 28.694 72.5269 28.5469 72.5269 28.375C72.5269 28.2031 72.5907 28.056 72.7183 27.9336C72.8485 27.8112 73.0034 27.75 73.1831 27.75C73.3628 27.75 73.5164 27.8112 73.644 27.9336C73.7743 28.056 73.8394 28.2031 73.8394 28.375C73.8394 28.5469 73.7743 28.694 73.644 28.8164C73.5164 28.9388 73.3628 29 73.1831 29ZM76.2466 32.3906V36H75.3247V30H76.2153V30.9375H76.2935C76.4341 30.6328 76.6476 30.388 76.9341 30.2031C77.2205 30.0156 77.5903 29.9219 78.0435 29.9219C78.4497 29.9219 78.8052 30.0052 79.1099 30.1719C79.4146 30.3359 79.6515 30.5859 79.8208 30.9219C79.9901 31.2552 80.0747 31.6771 80.0747 32.1875V36H79.1528V32.25C79.1528 31.7786 79.0304 31.4115 78.7856 31.1484C78.5409 30.8828 78.2049 30.75 77.7778 30.75C77.4836 30.75 77.2205 30.8138 76.9888 30.9414C76.7596 31.069 76.5786 31.2552 76.4458 31.5C76.313 31.7448 76.2466 32.0417 76.2466 32.3906Z" fill="#8B96A5"/>
<rect x="98" width="45" height="44" fill="#EFF2F4"/>
<path d="M115.33 21.1591C114.572 21.1591 113.894 21.017 113.295 20.733C112.697 20.4451 112.222 20.0511 111.869 19.5511C111.521 19.0511 111.335 18.4792 111.312 17.8352H113.358C113.396 18.3125 113.602 18.7027 113.977 19.0057C114.352 19.3049 114.803 19.4545 115.33 19.4545C115.742 19.4545 116.11 19.3598 116.432 19.1705C116.754 18.9811 117.008 18.7178 117.193 18.3807C117.379 18.0436 117.47 17.6591 117.466 17.2273C117.47 16.7879 117.377 16.3977 117.188 16.0568C116.998 15.7159 116.739 15.4489 116.409 15.2557C116.08 15.0587 115.701 14.9602 115.273 14.9602C114.924 14.9564 114.581 15.0208 114.244 15.1534C113.907 15.286 113.64 15.4602 113.443 15.6761L111.54 15.3636L112.148 9.36364H118.898V11.125H113.892L113.557 14.2102H113.625C113.841 13.9564 114.146 13.7462 114.54 13.5795C114.934 13.4091 115.366 13.3239 115.835 13.3239C116.54 13.3239 117.169 13.4905 117.722 13.8239C118.275 14.1534 118.71 14.608 119.028 15.1875C119.347 15.767 119.506 16.4299 119.506 17.1761C119.506 17.9451 119.328 18.6307 118.972 19.233C118.619 19.8314 118.129 20.303 117.5 20.6477C116.875 20.9886 116.152 21.1591 115.33 21.1591ZM125.67 21.1591C125.114 21.1553 124.57 21.0587 124.04 20.8693C123.509 20.6761 123.032 20.3636 122.608 19.9318C122.184 19.4962 121.847 18.9186 121.597 18.1989C121.347 17.4754 121.223 16.5795 121.227 15.5114C121.227 14.5152 121.333 13.6269 121.545 12.8466C121.758 12.0663 122.062 11.4072 122.46 10.8693C122.858 10.3277 123.337 9.91477 123.898 9.63068C124.462 9.34659 125.093 9.20455 125.79 9.20455C126.521 9.20455 127.169 9.34848 127.733 9.63636C128.301 9.92424 128.759 10.3182 129.108 10.8182C129.456 11.3144 129.672 11.875 129.756 12.5H127.682C127.576 12.053 127.358 11.697 127.028 11.4318C126.703 11.1629 126.29 11.0284 125.79 11.0284C124.983 11.0284 124.362 11.3788 123.926 12.0795C123.494 12.7803 123.277 13.7424 123.273 14.9659H123.352C123.538 14.6326 123.778 14.3466 124.074 14.108C124.369 13.8693 124.703 13.6856 125.074 13.5568C125.449 13.4242 125.845 13.358 126.261 13.358C126.943 13.358 127.555 13.5208 128.097 13.8466C128.642 14.1723 129.074 14.6212 129.392 15.1932C129.71 15.7614 129.867 16.4129 129.864 17.1477C129.867 17.9129 129.693 18.6004 129.341 19.2102C128.989 19.8163 128.498 20.2936 127.869 20.642C127.241 20.9905 126.508 21.1629 125.67 21.1591ZM125.659 19.4545C126.072 19.4545 126.441 19.3542 126.767 19.1534C127.093 18.9527 127.35 18.6818 127.54 18.3409C127.729 18 127.822 17.6174 127.818 17.1932C127.822 16.7765 127.731 16.3996 127.545 16.0625C127.364 15.7254 127.112 15.4583 126.79 15.2614C126.468 15.0644 126.1 14.9659 125.688 14.9659C125.381 14.9659 125.095 15.0246 124.83 15.142C124.564 15.2595 124.333 15.4223 124.136 15.6307C123.939 15.8352 123.784 16.0739 123.67 16.3466C123.561 16.6155 123.504 16.9034 123.5 17.2102C123.504 17.6155 123.598 17.9886 123.784 18.3295C123.97 18.6705 124.225 18.9432 124.551 19.1477C124.877 19.3523 125.246 19.4545 125.659 19.4545Z" fill="#8B96A5"/>
<path d="M115.563 30C115.516 29.6042 115.326 29.2969 114.993 29.0781C114.659 28.8594 114.25 28.75 113.766 28.75C113.412 28.75 113.102 28.8073 112.836 28.9219C112.573 29.0365 112.368 29.194 112.219 29.3945C112.073 29.5951 112 29.8229 112 30.0781C112 30.2917 112.051 30.4753 112.153 30.6289C112.257 30.7799 112.39 30.9062 112.551 31.0078C112.713 31.1068 112.882 31.1888 113.059 31.2539C113.236 31.3164 113.399 31.3672 113.547 31.4062L114.36 31.625C114.568 31.6797 114.8 31.7552 115.055 31.8516C115.313 31.9479 115.559 32.0794 115.793 32.2461C116.03 32.4102 116.226 32.6211 116.379 32.8789C116.533 33.1367 116.61 33.4531 116.61 33.8281C116.61 34.2604 116.497 34.651 116.27 35C116.046 35.349 115.718 35.6263 115.286 35.832C114.856 36.0378 114.334 36.1406 113.719 36.1406C113.146 36.1406 112.65 36.0482 112.231 35.8633C111.814 35.6784 111.486 35.4206 111.247 35.0898C111.01 34.7591 110.875 34.375 110.844 33.9375H111.844C111.87 34.2396 111.972 34.4896 112.149 34.6875C112.329 34.8828 112.555 35.0286 112.829 35.125C113.105 35.2187 113.402 35.2656 113.719 35.2656C114.089 35.2656 114.421 35.2057 114.715 35.0859C115.01 34.9635 115.243 34.7943 115.415 34.5781C115.586 34.3594 115.672 34.1042 115.672 33.8125C115.672 33.5469 115.598 33.3307 115.45 33.1641C115.301 32.9974 115.106 32.862 114.864 32.7578C114.622 32.6536 114.36 32.5625 114.079 32.4844L113.094 32.2031C112.469 32.0234 111.974 31.7669 111.61 31.4336C111.245 31.1003 111.063 30.6641 111.063 30.125C111.063 29.6771 111.184 29.2865 111.426 28.9531C111.671 28.6172 111.999 28.3568 112.411 28.1719C112.825 27.9844 113.287 27.8906 113.797 27.8906C114.313 27.8906 114.771 27.9831 115.172 28.168C115.573 28.3503 115.891 28.6003 116.125 28.918C116.362 29.2357 116.487 29.5964 116.5 30H115.563ZM120.593 36.125C120.015 36.125 119.516 35.9974 119.097 35.7422C118.681 35.4844 118.359 35.125 118.132 34.6641C117.908 34.2005 117.796 33.6615 117.796 33.0469C117.796 32.4323 117.908 31.8906 118.132 31.4219C118.359 30.9505 118.674 30.5833 119.078 30.3203C119.484 30.0547 119.958 29.9219 120.5 29.9219C120.812 29.9219 121.121 29.974 121.425 30.0781C121.73 30.1823 122.007 30.3516 122.257 30.5859C122.507 30.8177 122.707 31.125 122.855 31.5078C123.003 31.8906 123.078 32.362 123.078 32.9219V33.3125H118.453V32.5156H122.14C122.14 32.1771 122.072 31.875 121.937 31.6094C121.804 31.3437 121.614 31.1341 121.367 30.9805C121.122 30.8268 120.833 30.75 120.5 30.75C120.132 30.75 119.815 30.8411 119.546 31.0234C119.281 31.2031 119.076 31.4375 118.933 31.7266C118.79 32.0156 118.718 32.3255 118.718 32.6562V33.1875C118.718 33.6406 118.796 34.0247 118.953 34.3398C119.111 34.6523 119.332 34.8906 119.613 35.0547C119.894 35.2161 120.221 35.2969 120.593 35.2969C120.835 35.2969 121.054 35.263 121.25 35.1953C121.447 35.125 121.618 35.0208 121.761 34.8828C121.904 34.7422 122.015 34.5677 122.093 34.3594L122.984 34.6094C122.89 34.9115 122.733 35.1771 122.511 35.4062C122.29 35.6328 122.016 35.8099 121.691 35.9375C121.365 36.0625 121 36.125 120.593 36.125ZM126.917 36.125C126.355 36.125 125.871 35.9922 125.464 35.7266C125.058 35.4609 124.746 35.0951 124.527 34.6289C124.308 34.1628 124.199 33.6302 124.199 33.0312C124.199 32.4219 124.311 31.8841 124.535 31.418C124.761 30.9492 125.076 30.5833 125.48 30.3203C125.886 30.0547 126.36 29.9219 126.902 29.9219C127.324 29.9219 127.704 30 128.042 30.1562C128.381 30.3125 128.658 30.5312 128.875 30.8125C129.091 31.0937 129.225 31.4219 129.277 31.7969H128.355C128.285 31.5234 128.128 31.2812 127.886 31.0703C127.647 30.8568 127.324 30.75 126.917 30.75C126.558 30.75 126.243 30.8437 125.972 31.0312C125.704 31.2161 125.494 31.4779 125.343 31.8164C125.195 32.1523 125.121 32.5469 125.121 33C125.121 33.4635 125.194 33.8672 125.339 34.2109C125.488 34.5547 125.696 34.8216 125.964 35.0117C126.235 35.2018 126.553 35.2969 126.917 35.2969C127.157 35.2969 127.375 35.2552 127.57 35.1719C127.765 35.0885 127.931 34.9688 128.066 34.8125C128.201 34.6562 128.298 34.4687 128.355 34.25H129.277C129.225 34.6042 129.096 34.9232 128.89 35.207C128.687 35.4883 128.417 35.7122 128.082 35.8789C127.748 36.043 127.36 36.125 126.917 36.125Z" fill="#8B96A5"/>
</svg>
