<svg width="198" height="50" viewBox="0 0 198 50" fill="none" xmlns="http://www.w3.org/2000/svg">
<rect width="45" height="50" rx="4" fill="#606060"/>
<path d="M16.576 23.2557C15.5987 23.2519 14.7578 23.0114 14.0533 22.5341C13.3525 22.0568 12.8127 21.3655 12.4339 20.4602C12.0589 19.5549 11.8733 18.4659 11.8771 17.1932C11.8771 15.9242 12.0646 14.8428 12.4396 13.9489C12.8184 13.0549 13.3582 12.375 14.0589 11.9091C14.7635 11.4394 15.6025 11.2045 16.576 11.2045C17.5495 11.2045 18.3866 11.4394 19.0874 11.9091C19.7919 12.3788 20.3336 13.0606 20.7124 13.9545C21.0911 14.8447 21.2786 15.9242 21.2749 17.1932C21.2749 18.4697 21.0855 19.5606 20.7067 20.4659C20.3317 21.3712 19.7938 22.0625 19.093 22.5398C18.3923 23.017 17.5533 23.2557 16.576 23.2557ZM16.576 21.2159C17.2427 21.2159 17.7749 20.8807 18.1726 20.2102C18.5703 19.5398 18.7673 18.5341 18.7635 17.1932C18.7635 16.3106 18.6726 15.5758 18.4908 14.9886C18.3127 14.4015 18.0589 13.9602 17.7294 13.6648C17.4036 13.3693 17.0192 13.2216 16.576 13.2216C15.9131 13.2216 15.3828 13.553 14.9851 14.2159C14.5874 14.8788 14.3866 15.8712 14.3828 17.1932C14.3828 18.0871 14.4718 18.8333 14.6499 19.4318C14.8317 20.0265 15.0874 20.4735 15.4169 20.7727C15.7464 21.0682 16.1328 21.2159 16.576 21.2159ZM22.853 20.9545V19.017L27.7109 11.3636H29.3814V14.0455H28.3928L25.3303 18.892V18.983H32.2337V20.9545H22.853ZM28.4382 23V20.3636L28.4837 19.5057V11.3636H30.7905V23H28.4382Z" fill="white"/>
<path d="M12.1992 39H9.50604V30.2727H12.3185C13.1651 30.2727 13.8896 30.4474 14.4918 30.7969C15.0941 31.1435 15.5558 31.642 15.8768 32.2926C16.1978 32.9403 16.3583 33.7159 16.3583 34.6193C16.3583 35.5284 16.1964 36.3111 15.8725 36.9673C15.5487 37.6207 15.0771 38.1236 14.4577 38.4759C13.8384 38.8253 13.0856 39 12.1992 39ZM10.5629 38.0625H12.131C12.8526 38.0625 13.4506 37.9233 13.9251 37.6449C14.3995 37.3665 14.7532 36.9702 14.9862 36.456C15.2191 35.9418 15.3356 35.3295 15.3356 34.6193C15.3356 33.9148 15.2205 33.3082 14.9904 32.7997C14.7603 32.2884 14.4165 31.8963 13.9592 31.6236C13.5018 31.348 12.9322 31.2102 12.2504 31.2102H10.5629V38.0625ZM19.9208 39.1534C19.506 39.1534 19.1296 39.0753 18.7915 38.919C18.4535 38.7599 18.185 38.5312 17.9862 38.233C17.7873 37.9318 17.6879 37.5682 17.6879 37.142C17.6879 36.767 17.7617 36.4631 17.9094 36.2301C18.0572 35.9943 18.2546 35.8097 18.5018 35.6761C18.7489 35.5426 19.0217 35.4432 19.32 35.3778C19.6211 35.3097 19.9237 35.2557 20.2276 35.2159C20.6254 35.1648 20.9478 35.1264 21.195 35.1009C21.445 35.0724 21.6268 35.0256 21.7404 34.9602C21.8569 34.8949 21.9151 34.7812 21.9151 34.6193V34.5852C21.9151 34.1648 21.8001 33.8381 21.57 33.6051C21.3427 33.3722 20.9975 33.2557 20.5344 33.2557C20.0543 33.2557 19.6779 33.3608 19.4052 33.571C19.1325 33.7812 18.9407 34.0057 18.8299 34.2443L17.8754 33.9034C18.0458 33.5057 18.2731 33.196 18.5572 32.9744C18.8441 32.75 19.1566 32.5937 19.4947 32.5057C19.8356 32.4148 20.1708 32.3693 20.5004 32.3693C20.7106 32.3693 20.9521 32.3949 21.2248 32.446C21.5004 32.4943 21.766 32.5952 22.0217 32.7486C22.2802 32.902 22.4947 33.1335 22.6651 33.4432C22.8356 33.7528 22.9208 34.1676 22.9208 34.6875V39H21.9151V38.1136H21.864C21.7958 38.2557 21.6822 38.4077 21.5231 38.5696C21.364 38.7315 21.1523 38.8693 20.8881 38.983C20.6239 39.0966 20.3015 39.1534 19.9208 39.1534ZM20.0742 38.25C20.4719 38.25 20.8072 38.1719 21.0799 38.0156C21.3555 37.8594 21.5629 37.6577 21.7021 37.4105C21.8441 37.1634 21.9151 36.9034 21.9151 36.6307V35.7102C21.8725 35.7614 21.7788 35.8082 21.6339 35.8509C21.4918 35.8906 21.3271 35.9261 21.1396 35.9574C20.9549 35.9858 20.7745 36.0114 20.5984 36.0341C20.4251 36.054 20.2844 36.071 20.1765 36.0852C19.9151 36.1193 19.6708 36.1747 19.4435 36.2514C19.2191 36.3253 19.0373 36.4375 18.8981 36.5881C18.7617 36.7358 18.6935 36.9375 18.6935 37.1932C18.6935 37.5426 18.8228 37.8068 19.0813 37.9858C19.3427 38.1619 19.6737 38.25 20.0742 38.25ZM25.1697 41.4545C24.9993 41.4545 24.8473 41.4403 24.7138 41.4119C24.5803 41.3864 24.4879 41.3608 24.4368 41.3352L24.6925 40.4489C24.9368 40.5114 25.1527 40.5341 25.3402 40.517C25.5277 40.5 25.6939 40.4162 25.8388 40.2656C25.9865 40.1179 26.1214 39.8778 26.2436 39.5455L26.4311 39.0341L24.0107 32.4545H25.1016L26.9084 37.6705H26.9766L28.7834 32.4545H29.8743L27.0959 39.9545C26.9709 40.2926 26.8161 40.5724 26.6314 40.794C26.4467 41.0185 26.2322 41.1847 25.9879 41.2926C25.7464 41.4006 25.4737 41.4545 25.1697 41.4545ZM35.8381 33.9205L34.9347 34.1761C34.8778 34.0256 34.794 33.8793 34.6832 33.7372C34.5753 33.5923 34.4276 33.473 34.2401 33.3793C34.0526 33.2855 33.8125 33.2386 33.5199 33.2386C33.1193 33.2386 32.7855 33.331 32.5185 33.5156C32.2543 33.6974 32.1222 33.929 32.1222 34.2102C32.1222 34.4602 32.2131 34.6577 32.3949 34.8026C32.5767 34.9474 32.8608 35.0682 33.2472 35.1648L34.2188 35.4034C34.804 35.5455 35.2401 35.7628 35.527 36.0554C35.8139 36.3452 35.9574 36.7187 35.9574 37.1761C35.9574 37.5511 35.8494 37.8864 35.6335 38.1818C35.4205 38.4773 35.1222 38.7102 34.7386 38.8807C34.3551 39.0511 33.9091 39.1364 33.4006 39.1364C32.733 39.1364 32.1804 38.9915 31.7429 38.7017C31.3054 38.4119 31.0284 37.9886 30.9119 37.4318L31.8665 37.1932C31.9574 37.5455 32.1293 37.8097 32.3821 37.9858C32.6378 38.1619 32.9716 38.25 33.3835 38.25C33.8523 38.25 34.2244 38.1506 34.5 37.9517C34.7784 37.75 34.9176 37.5085 34.9176 37.2273C34.9176 37 34.8381 36.8097 34.679 36.6562C34.5199 36.5 34.2756 36.3835 33.946 36.3068L32.8551 36.0511C32.2557 35.9091 31.8153 35.6889 31.5341 35.3906C31.2557 35.0895 31.1165 34.7131 31.1165 34.2614C31.1165 33.892 31.2202 33.5653 31.4276 33.2812C31.6378 32.9972 31.9233 32.7741 32.2841 32.6122C32.6477 32.4503 33.0597 32.3693 33.5199 32.3693C34.1676 32.3693 34.6761 32.5114 35.0455 32.7955C35.4176 33.0795 35.6818 33.4545 35.8381 33.9205Z" fill="white"/>
<rect x="51" width="45" height="50" rx="4" fill="#606060"/>
<path d="M70.3182 11.3636V23H67.858V13.6989H67.7898L65.125 15.3693V13.1875L68.0057 11.3636H70.3182ZM77.3849 23.1591C76.5365 23.1591 75.7808 23.0133 75.1179 22.7216C74.4588 22.4261 73.938 22.0208 73.5554 21.5057C73.1766 20.9867 72.9815 20.3883 72.9702 19.7102H75.4474C75.4626 19.9943 75.5554 20.2443 75.7259 20.4602C75.9001 20.6723 76.1312 20.8371 76.419 20.9545C76.7069 21.072 77.0308 21.1307 77.3906 21.1307C77.7656 21.1307 78.0971 21.0644 78.3849 20.9318C78.6728 20.7992 78.8982 20.6155 79.0611 20.3807C79.224 20.1458 79.3054 19.875 79.3054 19.5682C79.3054 19.2576 79.2183 18.983 79.044 18.7443C78.8736 18.5019 78.6274 18.3125 78.3054 18.1761C77.9872 18.0398 77.6084 17.9716 77.169 17.9716H76.0838V16.1648H77.169C77.5402 16.1648 77.8679 16.1004 78.152 15.9716C78.4399 15.8428 78.6634 15.6648 78.8224 15.4375C78.9815 15.2064 79.0611 14.9375 79.0611 14.6307C79.0611 14.339 78.991 14.0833 78.8509 13.8636C78.7145 13.6402 78.5213 13.4659 78.2713 13.3409C78.0251 13.2159 77.7372 13.1534 77.4077 13.1534C77.0743 13.1534 76.7694 13.214 76.4929 13.3352C76.2164 13.4527 75.9948 13.6212 75.8281 13.8409C75.6615 14.0606 75.5724 14.3182 75.5611 14.6136H73.2031C73.2145 13.9432 73.4058 13.3523 73.777 12.8409C74.1482 12.3295 74.6482 11.9299 75.277 11.642C75.9096 11.3504 76.6236 11.2045 77.419 11.2045C78.2221 11.2045 78.9247 11.3504 79.527 11.642C80.1293 11.9337 80.5971 12.3277 80.9304 12.8239C81.2675 13.3163 81.4342 13.8693 81.4304 14.483C81.4342 15.1345 81.2315 15.678 80.8224 16.1136C80.4171 16.5492 79.8887 16.8258 79.2372 16.9432V17.0341C80.0933 17.1439 80.7448 17.4413 81.1918 17.9261C81.6425 18.4072 81.866 19.0095 81.8622 19.733C81.866 20.3958 81.6747 20.9848 81.2884 21.5C80.9058 22.0152 80.3774 22.4205 79.7031 22.7159C79.0289 23.0114 78.2562 23.1591 77.3849 23.1591Z" fill="white"/>
<path d="M60.3166 39V30.2727H61.3734V34.1591H66.0268V30.2727H67.0836V39H66.0268V35.0966H61.3734V39H60.3166ZM71.7221 39.1364C71.1312 39.1364 70.6127 38.9957 70.1667 38.7145C69.7235 38.4332 69.377 38.0398 69.127 37.5341C68.8798 37.0284 68.7562 36.4375 68.7562 35.7614C68.7562 35.0795 68.8798 34.4844 69.127 33.9759C69.377 33.4673 69.7235 33.0724 70.1667 32.7912C70.6127 32.5099 71.1312 32.3693 71.7221 32.3693C72.313 32.3693 72.8301 32.5099 73.2733 32.7912C73.7193 33.0724 74.0659 33.4673 74.313 33.9759C74.563 34.4844 74.688 35.0795 74.688 35.7614C74.688 36.4375 74.563 37.0284 74.313 37.5341C74.0659 38.0398 73.7193 38.4332 73.2733 38.7145C72.8301 38.9957 72.313 39.1364 71.7221 39.1364ZM71.7221 38.233C72.171 38.233 72.5403 38.1179 72.8301 37.8878C73.1199 37.6577 73.3343 37.3551 73.4735 36.9801C73.6127 36.6051 73.6824 36.1989 73.6824 35.7614C73.6824 35.3239 73.6127 34.9162 73.4735 34.5384C73.3343 34.1605 73.1199 33.8551 72.8301 33.6222C72.5403 33.3892 72.171 33.2727 71.7221 33.2727C71.2733 33.2727 70.9039 33.3892 70.6142 33.6222C70.3244 33.8551 70.1099 34.1605 69.9707 34.5384C69.8315 34.9162 69.7619 35.3239 69.7619 35.7614C69.7619 36.1989 69.8315 36.6051 69.9707 36.9801C70.1099 37.3551 70.3244 37.6577 70.6142 37.8878C70.9039 38.1179 71.2733 38.233 71.7221 38.233ZM80.3482 36.3239V32.4545H81.3539V39H80.3482V37.892H80.28C80.1266 38.2244 79.888 38.5071 79.5641 38.7401C79.2402 38.9702 78.8311 39.0852 78.3368 39.0852C77.9277 39.0852 77.5641 38.9957 77.2459 38.8168C76.9277 38.6349 76.6777 38.3622 76.4959 37.9986C76.3141 37.6321 76.2232 37.1705 76.2232 36.6136V32.4545H77.2289V36.5455C77.2289 37.0227 77.3624 37.4034 77.6294 37.6875C77.8993 37.9716 78.2431 38.1136 78.6607 38.1136C78.9107 38.1136 79.165 38.0497 79.4235 37.9219C79.6848 37.794 79.9036 37.598 80.0797 37.3338C80.2587 37.0696 80.3482 36.733 80.3482 36.3239ZM83.1958 39V32.4545H84.1674V33.4432H84.2356C84.3549 33.1193 84.5708 32.8565 84.8833 32.6548C85.1958 32.4531 85.5481 32.3523 85.9402 32.3523C86.014 32.3523 86.1064 32.3537 86.2172 32.3565C86.3279 32.3594 86.4118 32.3636 86.4686 32.3693V33.392C86.4345 33.3835 86.3564 33.3707 86.2342 33.3537C86.1149 33.3338 85.9885 33.3239 85.8549 33.3239C85.5368 33.3239 85.2527 33.3906 85.0027 33.5241C84.7555 33.6548 84.5595 33.8366 84.4146 34.0696C84.2725 34.2997 84.2015 34.5625 84.2015 34.858V39H83.1958Z" fill="white"/>
<rect x="102" width="45" height="50" rx="4" fill="#606060"/>
<path d="M118.549 23.1591C117.701 23.1591 116.945 23.0133 116.282 22.7216C115.623 22.4261 115.102 22.0208 114.719 21.5057C114.341 20.9867 114.146 20.3883 114.134 19.7102H116.612C116.627 19.9943 116.719 20.2443 116.89 20.4602C117.064 20.6723 117.295 20.8371 117.583 20.9545C117.871 21.072 118.195 21.1307 118.555 21.1307C118.93 21.1307 119.261 21.0644 119.549 20.9318C119.837 20.7992 120.062 20.6155 120.225 20.3807C120.388 20.1458 120.469 19.875 120.469 19.5682C120.469 19.2576 120.382 18.983 120.208 18.7443C120.038 18.5019 119.791 18.3125 119.469 18.1761C119.151 18.0398 118.772 17.9716 118.333 17.9716H117.248V16.1648H118.333C118.704 16.1648 119.032 16.1004 119.316 15.9716C119.604 15.8428 119.827 15.6648 119.987 15.4375C120.146 15.2064 120.225 14.9375 120.225 14.6307C120.225 14.339 120.155 14.0833 120.015 13.8636C119.879 13.6402 119.685 13.4659 119.435 13.3409C119.189 13.2159 118.901 13.1534 118.572 13.1534C118.238 13.1534 117.933 13.214 117.657 13.3352C117.38 13.4527 117.159 13.6212 116.992 13.8409C116.826 14.0606 116.737 14.3182 116.725 14.6136H114.367C114.379 13.9432 114.57 13.3523 114.941 12.8409C115.312 12.3295 115.812 11.9299 116.441 11.642C117.074 11.3504 117.788 11.2045 118.583 11.2045C119.386 11.2045 120.089 11.3504 120.691 11.642C121.293 11.9337 121.761 12.3277 122.094 12.8239C122.432 13.3163 122.598 13.8693 122.594 14.483C122.598 15.1345 122.396 15.678 121.987 16.1136C121.581 16.5492 121.053 16.8258 120.401 16.9432V17.0341C121.257 17.1439 121.909 17.4413 122.356 17.9261C122.807 18.4072 123.03 19.0095 123.026 19.733C123.03 20.3958 122.839 20.9848 122.452 21.5C122.07 22.0152 121.541 22.4205 120.867 22.7159C120.193 23.0114 119.42 23.1591 118.549 23.1591ZM124.619 20.9545V19.017L129.477 11.3636H131.147V14.0455H130.158L127.096 18.892V18.983H133.999V20.9545H124.619ZM130.204 23V20.3636L130.249 19.5057V11.3636H132.556V23H130.204Z" fill="white"/>
<path d="M115.285 30.2727H116.547L119.513 37.517H119.615L122.581 30.2727H123.842V39H122.854V32.3693H122.768L120.041 39H119.086L116.359 32.3693H116.274V39H115.285V30.2727ZM125.825 39V32.4545H126.83V39H125.825ZM126.336 31.3636C126.14 31.3636 125.971 31.2969 125.829 31.1634C125.69 31.0298 125.62 30.8693 125.62 30.6818C125.62 30.4943 125.69 30.3338 125.829 30.2003C125.971 30.0668 126.14 30 126.336 30C126.532 30 126.7 30.0668 126.839 30.2003C126.981 30.3338 127.052 30.4943 127.052 30.6818C127.052 30.8693 126.981 31.0298 126.839 31.1634C126.7 31.2969 126.532 31.3636 126.336 31.3636ZM129.678 35.0625V39H128.672V32.4545H129.644V33.4773H129.729C129.883 33.1449 130.116 32.8778 130.428 32.6761C130.741 32.4716 131.144 32.3693 131.638 32.3693C132.081 32.3693 132.469 32.4602 132.802 32.642C133.134 32.821 133.393 33.0938 133.577 33.4602C133.762 33.8239 133.854 34.2841 133.854 34.8409V39H132.849V34.9091C132.849 34.3949 132.715 33.9943 132.448 33.7074C132.181 33.4176 131.814 33.2727 131.349 33.2727C131.028 33.2727 130.741 33.3423 130.488 33.4815C130.238 33.6207 130.04 33.8239 129.895 34.0909C129.751 34.358 129.678 34.6818 129.678 35.0625Z" fill="white"/>
<rect x="153" width="45" height="50" rx="4" fill="#606060"/>
<path d="M170.256 23.1591C169.453 23.1591 168.737 23.0114 168.108 22.7159C167.483 22.4205 166.987 22.0133 166.619 21.4943C166.252 20.9754 166.061 20.3807 166.045 19.7102H168.432C168.458 20.161 168.648 20.5265 169 20.8068C169.352 21.0871 169.771 21.2273 170.256 21.2273C170.642 21.2273 170.983 21.142 171.278 20.9716C171.578 20.7973 171.811 20.5568 171.977 20.25C172.148 19.9394 172.233 19.5833 172.233 19.1818C172.233 18.7727 172.146 18.4129 171.972 18.1023C171.801 17.7917 171.564 17.5492 171.261 17.375C170.958 17.2008 170.612 17.1117 170.222 17.108C169.881 17.108 169.549 17.178 169.227 17.3182C168.909 17.4583 168.661 17.6496 168.483 17.892L166.295 17.5L166.847 11.3636H173.96V13.375H168.875L168.574 16.2898H168.642C168.847 16.0019 169.155 15.7633 169.568 15.5739C169.981 15.3845 170.443 15.2898 170.955 15.2898C171.655 15.2898 172.28 15.4545 172.83 15.7841C173.379 16.1136 173.812 16.5663 174.131 17.142C174.449 17.714 174.606 18.3731 174.602 19.1193C174.606 19.9034 174.424 20.6004 174.057 21.2102C173.693 21.8163 173.184 22.2936 172.528 22.642C171.877 22.9867 171.119 23.1591 170.256 23.1591ZM180.784 23.1591C180.186 23.1553 179.608 23.0549 179.051 22.858C178.498 22.661 178.002 22.3409 177.562 21.8977C177.123 21.4545 176.775 20.8674 176.517 20.1364C176.263 19.4053 176.136 18.5076 176.136 17.4432C176.14 16.4659 176.252 15.5928 176.472 14.8239C176.695 14.0511 177.013 13.3958 177.426 12.858C177.843 12.3201 178.341 11.911 178.92 11.6307C179.5 11.3466 180.15 11.2045 180.869 11.2045C181.646 11.2045 182.331 11.3561 182.926 11.6591C183.521 11.9583 183.998 12.3655 184.358 12.8807C184.722 13.3958 184.941 13.9735 185.017 14.6136H182.591C182.496 14.2083 182.297 13.8902 181.994 13.6591C181.691 13.428 181.316 13.3125 180.869 13.3125C180.112 13.3125 179.536 13.642 179.142 14.3011C178.752 14.9602 178.553 15.8561 178.545 16.9886H178.625C178.799 16.6439 179.034 16.3504 179.33 16.108C179.629 15.8617 179.968 15.6742 180.347 15.5455C180.729 15.4129 181.133 15.3466 181.557 15.3466C182.246 15.3466 182.86 15.5095 183.398 15.8352C183.936 16.1572 184.36 16.6004 184.67 17.1648C184.981 17.7292 185.136 18.375 185.136 19.1023C185.136 19.8902 184.953 20.5909 184.585 21.2045C184.222 21.8182 183.712 22.2992 183.057 22.6477C182.405 22.9924 181.648 23.1629 180.784 23.1591ZM180.773 21.2273C181.152 21.2273 181.491 21.1364 181.79 20.9545C182.089 20.7727 182.324 20.5265 182.494 20.2159C182.665 19.9053 182.75 19.5568 182.75 19.1705C182.75 18.7841 182.665 18.4375 182.494 18.1307C182.328 17.8239 182.097 17.5795 181.801 17.3977C181.506 17.2159 181.169 17.125 180.79 17.125C180.506 17.125 180.242 17.178 180 17.2841C179.761 17.3902 179.551 17.5379 179.369 17.7273C179.191 17.9167 179.051 18.1364 178.949 18.3864C178.847 18.6326 178.795 18.8958 178.795 19.1761C178.795 19.5511 178.881 19.8939 179.051 20.2045C179.225 20.5152 179.46 20.7633 179.756 20.9489C180.055 21.1345 180.394 21.2273 180.773 21.2273Z" fill="white"/>
<path d="M170.16 32.4545C170.108 32.0227 169.901 31.6875 169.537 31.4489C169.174 31.2102 168.728 31.0909 168.199 31.0909C167.813 31.0909 167.475 31.1534 167.185 31.2784C166.898 31.4034 166.674 31.5753 166.512 31.794C166.353 32.0128 166.273 32.2614 166.273 32.5398C166.273 32.7727 166.329 32.973 166.439 33.1406C166.553 33.3054 166.698 33.4432 166.874 33.554C167.05 33.6619 167.235 33.7514 167.428 33.8224C167.621 33.8906 167.799 33.946 167.961 33.9886L168.847 34.2273C169.074 34.2869 169.327 34.3693 169.606 34.4744C169.887 34.5795 170.155 34.723 170.411 34.9048C170.67 35.0838 170.883 35.3139 171.05 35.5952C171.218 35.8764 171.302 36.2216 171.302 36.6307C171.302 37.1023 171.178 37.5284 170.931 37.9091C170.687 38.2898 170.329 38.5923 169.857 38.8168C169.388 39.0412 168.819 39.1534 168.148 39.1534C167.523 39.1534 166.982 39.0526 166.525 38.8509C166.07 38.6491 165.712 38.3679 165.451 38.0071C165.192 37.6463 165.046 37.2273 165.012 36.75H166.103C166.131 37.0795 166.242 37.3523 166.435 37.5682C166.631 37.7812 166.878 37.9403 167.177 38.0455C167.478 38.1477 167.802 38.1989 168.148 38.1989C168.552 38.1989 168.914 38.1335 169.235 38.0028C169.556 37.8693 169.81 37.6847 169.998 37.4489C170.185 37.2102 170.279 36.9318 170.279 36.6136C170.279 36.3239 170.198 36.0881 170.036 35.9062C169.874 35.7244 169.661 35.5767 169.397 35.4631C169.133 35.3494 168.847 35.25 168.54 35.1648L167.466 34.858C166.785 34.6619 166.245 34.3821 165.847 34.0185C165.449 33.6548 165.251 33.179 165.251 32.5909C165.251 32.1023 165.383 31.6761 165.647 31.3125C165.914 30.946 166.272 30.6619 166.721 30.4602C167.172 30.2557 167.677 30.1534 168.233 30.1534C168.796 30.1534 169.296 30.2543 169.733 30.456C170.171 30.6548 170.518 30.9276 170.773 31.2741C171.032 31.6207 171.168 32.0142 171.182 32.4545H170.16ZM175.647 39.1364C175.017 39.1364 174.472 38.9972 174.015 38.7188C173.561 38.4375 173.21 38.0455 172.963 37.5426C172.718 37.0369 172.596 36.4489 172.596 35.7784C172.596 35.108 172.718 34.517 172.963 34.0057C173.21 33.4915 173.553 33.0909 173.994 32.804C174.437 32.5142 174.954 32.3693 175.545 32.3693C175.886 32.3693 176.222 32.4261 176.555 32.5398C176.887 32.6534 177.19 32.8381 177.463 33.0938C177.735 33.3466 177.953 33.6818 178.115 34.0994C178.276 34.517 178.357 35.0312 178.357 35.642V36.0682H173.312V35.1989H177.335C177.335 34.8295 177.261 34.5 177.113 34.2102C176.968 33.9205 176.761 33.6918 176.491 33.5241C176.224 33.3565 175.909 33.2727 175.545 33.2727C175.144 33.2727 174.798 33.3722 174.505 33.571C174.215 33.767 173.992 34.0227 173.836 34.3381C173.68 34.6534 173.602 34.9915 173.602 35.3523V35.9318C173.602 36.4261 173.687 36.8452 173.857 37.1889C174.031 37.5298 174.271 37.7898 174.578 37.9688C174.884 38.1449 175.241 38.233 175.647 38.233C175.911 38.233 176.15 38.196 176.363 38.1222C176.579 38.0455 176.765 37.9318 176.921 37.7812C177.078 37.6278 177.198 37.4375 177.284 37.2102L178.255 37.483C178.153 37.8125 177.981 38.1023 177.74 38.3523C177.498 38.5994 177.2 38.7926 176.845 38.9318C176.49 39.0682 176.09 39.1364 175.647 39.1364ZM182.546 39.1364C181.933 39.1364 181.404 38.9915 180.961 38.7017C180.518 38.4119 180.177 38.0128 179.938 37.5043C179.7 36.9957 179.58 36.4148 179.58 35.7614C179.58 35.0966 179.703 34.5099 179.947 34.0014C180.194 33.4901 180.538 33.0909 180.978 32.804C181.421 32.5142 181.938 32.3693 182.529 32.3693C182.99 32.3693 183.404 32.4545 183.774 32.625C184.143 32.7955 184.445 33.0341 184.681 33.3409C184.917 33.6477 185.063 34.0057 185.12 34.4148H184.115C184.038 34.1165 183.867 33.8523 183.603 33.6222C183.342 33.3892 182.99 33.2727 182.546 33.2727C182.154 33.2727 181.811 33.375 181.515 33.5795C181.222 33.7812 180.994 34.0668 180.829 34.4361C180.667 34.8026 180.586 35.233 180.586 35.7273C180.586 36.233 180.666 36.6733 180.825 37.0483C180.987 37.4233 181.214 37.7145 181.507 37.9219C181.802 38.1293 182.149 38.233 182.546 38.233C182.808 38.233 183.045 38.1875 183.258 38.0966C183.471 38.0057 183.651 37.875 183.799 37.7045C183.947 37.5341 184.052 37.3295 184.115 37.0909H185.12C185.063 37.4773 184.923 37.8253 184.698 38.1349C184.477 38.4418 184.183 38.6861 183.816 38.8679C183.453 39.0469 183.029 39.1364 182.546 39.1364Z" fill="white"/>
</svg>
